<svg width="44" height="44" viewBox="0 0 44 44" fill="none" xmlns="http://www.w3.org/2000/svg">
<g clip-path="url(#clip0_2105_559)">
<g filter="url(#filter0_d_2105_559)">
<path d="M12.8333 18.3333V25.6667H18.3333V38.5H25.6666V25.6667H31.1666L32.9999 18.3333H25.6666V14.6667C25.6666 14.1804 25.8597 13.7141 26.2036 13.3703C26.5474 13.0265 27.0137 12.8333 27.4999 12.8333H32.9999V5.5H27.4999C25.0688 5.5 22.7372 6.46577 21.0181 8.18485C19.299 9.90394 18.3333 12.2355 18.3333 14.6667V18.3333H12.8333Z" fill="#0F172A"/>
<path d="M12.8333 18.3333V25.6667H18.3333V38.5H25.6666V25.6667H31.1666L32.9999 18.3333H25.6666V14.6667C25.6666 14.1804 25.8597 13.7141 26.2036 13.3703C26.5474 13.0265 27.0137 12.8333 27.4999 12.8333H32.9999V5.5H27.4999C25.0688 5.5 22.7372 6.46577 21.0181 8.18485C19.299 9.90394 18.3333 12.2355 18.3333 14.6667V18.3333H12.8333Z" stroke="#CBD5E1" stroke-width="2.75" stroke-linecap="round" stroke-linejoin="round"/>
</g>
</g>
<defs>
<filter id="filter0_d_2105_559" x="7.45825" y="4.125" width="30.9167" height="43.75" filterUnits="userSpaceOnUse" color-interpolation-filters="sRGB">
<feFlood flood-opacity="0" result="BackgroundImageFix"/>
<feColorMatrix in="SourceAlpha" type="matrix" values="0 0 0 0 0 0 0 0 0 0 0 0 0 0 0 0 0 0 127 0" result="hardAlpha"/>
<feOffset dy="4"/>
<feGaussianBlur stdDeviation="2"/>
<feComposite in2="hardAlpha" operator="out"/>
<feColorMatrix type="matrix" values="0 0 0 0 0 0 0 0 0 0 0 0 0 0 0 0 0 0 0.25 0"/>
<feBlend mode="normal" in2="BackgroundImageFix" result="effect1_dropShadow_2105_559"/>
<feBlend mode="normal" in="SourceGraphic" in2="effect1_dropShadow_2105_559" result="shape"/>
</filter>
<clipPath id="clip0_2105_559">
<rect width="44" height="44" fill="white"/>
</clipPath>
</defs>
</svg>
