<svg width="36" height="44" viewBox="0 0 36 44" fill="none" xmlns="http://www.w3.org/2000/svg">
<path d="M13.0012 34.6147C5.117 37.1307 5.117 30.1218 2 29.2233L13.0012 34.6147ZM24.0024 38.209V31.919C24.0024 30.1218 24.1857 29.403 23.0856 28.3247C28.2195 27.7856 33.17 25.8087 33.17 17.5418C33.1678 15.3942 32.3129 13.3317 30.7864 11.791C31.5023 9.92547 31.4364 7.85814 30.6031 6.0401C30.6031 6.0401 28.5862 5.50096 24.1857 8.37639C20.4586 7.42496 16.545 7.42496 12.8178 8.37639C8.41735 5.50096 6.40047 6.0401 6.40047 6.0401C5.5671 7.85814 5.50119 9.92547 6.21712 11.791C4.69062 13.3317 3.83576 15.3942 3.83353 17.5418C3.83353 25.8087 8.78406 27.7856 13.9179 28.3247C12.8178 29.403 12.8178 30.4813 13.0012 31.919V38.209" fill="#0F172A"/>
<path d="M24.0024 38.209V31.919C24.0024 30.1218 24.1857 29.403 23.0856 28.3247C28.2195 27.7856 33.17 25.8087 33.17 17.5418C33.1678 15.3942 32.3129 13.3317 30.7864 11.791C31.5023 9.92547 31.4364 7.85814 30.6031 6.0401C30.6031 6.0401 28.5862 5.50096 24.1857 8.37639C20.4586 7.42496 16.545 7.42496 12.8178 8.37639C8.41735 5.50096 6.40047 6.0401 6.40047 6.0401C5.5671 7.85814 5.50119 9.92547 6.21712 11.791C4.69062 13.3317 3.83576 15.3942 3.83353 17.5418C3.83353 25.8087 8.78406 27.7856 13.9179 28.3247C12.8178 29.403 12.8178 30.4813 13.0012 31.919V38.209M13.0012 34.6147C5.117 37.1307 5.117 30.1218 2 29.2233L13.0012 34.6147Z" stroke="#CBD5E1" stroke-width="2.75" stroke-linecap="round" stroke-linejoin="round"/>
</svg>
