<svg width="44" height="44" viewBox="0 0 44 44" fill="none" xmlns="http://www.w3.org/2000/svg">
<g clip-path="url(#clip0_2105_565)">
<path d="M32.9999 7.33337H10.9999C8.97487 7.33337 7.33325 8.975 7.33325 11V33C7.33325 35.0251 8.97487 36.6667 10.9999 36.6667H32.9999C35.025 36.6667 36.6666 35.0251 36.6666 33V11C36.6666 8.975 35.025 7.33337 32.9999 7.33337Z" fill="#0F172A" stroke="#CBD5E1" stroke-width="2.75" stroke-linecap="round" stroke-linejoin="round"/>
<path d="M14.6667 20.1666V29.3333" stroke="#CBD5E1" stroke-width="2.75" stroke-linecap="round" stroke-linejoin="round"/>
<path d="M14.6667 14.6666V14.685" stroke="#CBD5E1" stroke-width="2.75" stroke-linecap="round" stroke-linejoin="round"/>
<path d="M22 29.3333V20.1666" stroke="#CBD5E1" stroke-width="2.75" stroke-linecap="round" stroke-linejoin="round"/>
<path d="M29.3333 29.3333V23.8333C29.3333 22.8608 28.947 21.9282 28.2594 21.2406C27.5718 20.5529 26.6391 20.1666 25.6667 20.1666C24.6942 20.1666 23.7616 20.5529 23.0739 21.2406C22.3863 21.9282 22 22.8608 22 23.8333" stroke="#CBD5E1" stroke-width="2.75" stroke-linecap="round" stroke-linejoin="round"/>
</g>
<defs>
<clipPath id="clip0_2105_565">
<rect width="44" height="44" fill="white"/>
</clipPath>
</defs>
</svg>
